<svg id="Layer_1" data-name="Layer 1" xmlns="http://www.w3.org/2000/svg" viewBox="0 0 600 400"><defs><style>.cls-1{fill:#231f20;}.cls-2{fill:#fbab2b;}.cls-3{fill:#f15b2b;}.cls-4{fill:#fcb12e;}.cls-5{fill:#faa325;}.cls-6{fill:#fcb431;}.cls-7{fill:#8d6759;}.cls-8{fill:#f15a29;}</style></defs><title>Dark[RC]</title><path class="cls-1" d="M248.81,175.61a1.86,1.86,0,0,1,.4-.69,4.22,4.22,0,0,1,1.09-.65,4.8,4.8,0,0,1,1-.57.64.64,0,0,1,.57.28l.08.35.17.65a1.64,1.64,0,0,0-.06.36.67.67,0,0,0,.23.44,6,6,0,0,0,1.13-.52l.89-.3.88-.59.57-.23a3.56,3.56,0,0,1,.5-.23l.46.09h.07c.07,0,.54-.15,1.43-.45a3.48,3.48,0,0,1,.63,0,.9.9,0,0,1,.5.11l.44.42.3.06.61-.29a.15.15,0,0,1,.1,0,1,1,0,0,1,.63.31,1.69,1.69,0,0,1,.49.91,11.2,11.2,0,0,1-1.27,1c-.3.4-.53.59-.67.59s-.52-.22-.88-.67a5.3,5.3,0,0,1-.63,0,2.84,2.84,0,0,1-.91-.25,4.08,4.08,0,0,0-1-.25.8.8,0,0,1-.69.46c-.39,0-.64.06-.74.08l-.84.26a1,1,0,0,1-.33-.15c-.28.25-.77.63-1.47,1.13a1.94,1.94,0,0,0-.66,1.71v.73q0,.38,0,.63c0,.16-.17.39-.49.7a1,1,0,0,1,.36.65,2.81,2.81,0,0,1,0,.36l.31.08.07.63.1,3.76-.08.23-.55.3a3.68,3.68,0,0,0-1.18.31,4.12,4.12,0,0,0,1.33.28l.35-.09a4.13,4.13,0,0,1,.21,1,.85.85,0,0,1-.48.76,4.06,4.06,0,0,1-1.07.21,4.82,4.82,0,0,0-.91.52.48.48,0,0,1-.29.09c-.34,0-.5-.15-.5-.45a9.51,9.51,0,0,1,.31-1.19.78.78,0,0,0,0-.26s0-.34-.1-.94a2.85,2.85,0,0,1,.08-.36l.51-.15c0-.12,0-.23,0-.33a1.11,1.11,0,0,0-.32-.65v-.53a9.61,9.61,0,0,0-.12-1c0-.46.06-.85.06-1.18.52-.18.78-.4.78-.67a1,1,0,0,0-.07-.33,1.76,1.76,0,0,1-.42.06.65.65,0,0,1-.35-.17v-2.1c0-.11,0-.24,0-.38v-.34a2.29,2.29,0,0,1,.27-.9.94.94,0,0,1-.32-.4s0-.5-.08-1.37A2.08,2.08,0,0,0,248.81,175.61Z"/><path class="cls-1" d="M275.53,174.44l.67-.42a5.13,5.13,0,0,0,.44.48,2.55,2.55,0,0,0,.44.21,19,19,0,0,1,1.81,1.77,3.16,3.16,0,0,1,.69,1c.12.27.23.59.36,1l.3.76-.15.15a5,5,0,0,1-.63-.19l-.8.29-.72-.13-.63.17c-.87-.61-1.32-.92-1.36-.92a4.11,4.11,0,0,0-1,.86c-.9-.17-1.38-.25-1.43-.25a6.3,6.3,0,0,0-.8.06l-.1-.08c-.23,0-.84,0-1.83,0l-.78.08-1,.09-1,.16-.88,0a13.94,13.94,0,0,1-1.66.45,5.27,5.27,0,0,1-.21,1,2,2,0,0,1-.51.7c.45.31.69.52.72.65a9.23,9.23,0,0,0,.4,1.81l.38.21-.11.77.65.17a2.31,2.31,0,0,0,.55,1.16,2.08,2.08,0,0,0,1.05.38c.07.43.18.69.34.78a1.61,1.61,0,0,0,.76.16l.35.55a2.15,2.15,0,0,1,.4,0,7.21,7.21,0,0,1,1.26.52,1.14,1.14,0,0,0,.55.13,4.39,4.39,0,0,0,1.07-.25l1.35-.15,1-.29a4.41,4.41,0,0,0,1-.13,11.15,11.15,0,0,0,1.3-.74,4.48,4.48,0,0,0,1.07-.77,8.18,8.18,0,0,0,.72-1,.63.63,0,0,1,.58-.25,1.08,1.08,0,0,1,.55.27,4.72,4.72,0,0,1-.27,1c-.59,1-1,1.65-1.12,2a1.16,1.16,0,0,0-.46-.12,2.27,2.27,0,0,0-.69.42,2.09,2.09,0,0,1-1,.29,14.57,14.57,0,0,1-1.81.42,9.91,9.91,0,0,0-1.09.15l-.67.21-1.24-.19-.74.13-.36,0a6.9,6.9,0,0,1-.77.06c-.19,0-.7,0-1.54-.15l-.4,0-.44-.27q-1.57-.48-1.74-.57a8.2,8.2,0,0,1-.72-.63s-.27-.18-.74-.46-.6-.42-.63-.55l-.37-.67a5.74,5.74,0,0,0-.72-.8,1.12,1.12,0,0,0,.21-.51s-.18-.43-.54-1.17a5.85,5.85,0,0,1-.15-1.79,6.7,6.7,0,0,1,.29-1.51,4.15,4.15,0,0,1,.36-.95l.71-.84.47-1c.47-.45,1-.95,1.64-1.51l1.53-.95,1.56-1.07.56-.11,1.6-.5,1-.08a10.92,10.92,0,0,1,1.37-.47A1.58,1.58,0,0,1,275.53,174.44Zm-2.44,3.15.36.44.56-.1a6,6,0,0,0,1.14-.3l1.2.11a.93.93,0,0,0,.1-.21c0-.09,0-.16,0-.21a.77.77,0,0,0-.25-.47,2,2,0,0,1-.21-.25q-.51-.67-.63-.63l-.69-.33a1.64,1.64,0,0,1-.4-.49,19.36,19.36,0,0,0-2.09-.08l-.42,0-.71.42a9.7,9.7,0,0,1-1.16.29c-.59.21-1.1.42-1.55.61-.1.07-.37.31-.82.72l-.49.37v.13l.05,0,1.53.61.46.47.82-1a.35.35,0,0,1,.23-.09c.05,0,.39.09,1,.28h.05a7.35,7.35,0,0,0,1.2-.21A3,3,0,0,1,273.09,177.59Z"/><path class="cls-1" d="M285.85,174.52l.86-.54c0-.24,0-.55.08-.93l0-2.1a3.06,3.06,0,0,1,.42-1.37,1.68,1.68,0,0,1-.54-.52c0-.05,0-.77-.07-2.17l0-1.51,0-1a1.7,1.7,0,0,1,.32-.89,4,4,0,0,0,.56-1.05,1.57,1.57,0,0,0,0-.29l-.31-.15a6.05,6.05,0,0,1,1.39-3,5.25,5.25,0,0,1,.92-1.09q.93-.78,1.35-1.11c.23-.17.89-.54,2-1.12l.44-.31.63-.09L295,155a5,5,0,0,1,.67.19.86.86,0,0,0,.28,0,1.35,1.35,0,0,0,.33,0l.51-.06a1.88,1.88,0,0,1,1.43.67h.52a.74.74,0,0,1-.14.48s-.17.21-.47.55a3.86,3.86,0,0,1-.42.55,4.51,4.51,0,0,1-1.13.56c-.31-.17-.78-.43-1.41-.8a2.94,2.94,0,0,0-1.43-.46,4.89,4.89,0,0,0-1.89.65,2,2,0,0,0-.78.7,11.82,11.82,0,0,0-1.14,2.65l-.23.46-.29,1.15a3,3,0,0,0-.38.8q0,.24.42.36a2.4,2.4,0,0,0-.15.84c0,.13,0,.46,0,1l0,1.56a4.41,4.41,0,0,1-.4.94,1.44,1.44,0,0,0,0,.4,2.39,2.39,0,0,0,.36,1,20.62,20.62,0,0,1,.1,3.13c0,.24-.21.56-.63.95v.17a1.22,1.22,0,0,0,.49.27c.25.08.4.46.46,1.13a2.45,2.45,0,0,0,.76.61l.92.26,1.22.33,1.47-.57,1.56-.33a4,4,0,0,1,1.11-.61c.12,0,.38-.06.8-.11a1.45,1.45,0,0,1,.44.82c-.8.48-1.29.78-1.47.92a3.46,3.46,0,0,0-.63.64.34.34,0,0,1-.27.15,2.52,2.52,0,0,1-.72-.17,2.36,2.36,0,0,0-.8-.13,7.88,7.88,0,0,0-1.15.15,4.83,4.83,0,0,1-.7.06,6.7,6.7,0,0,1-1.21-.14,8.19,8.19,0,0,0-1-.19.67.67,0,0,0-.45.24.53.53,0,0,0-.19.43l.19.92.13,2.06a.86.86,0,0,1-.1.3c-.3.1-.45.25-.45.46a1,1,0,0,0,.47.74c0,.37,0,.62.06.73a21.75,21.75,0,0,0,.31,2.73l-.21.22-.35-.09-.36.34c.17.22.29.37.36.44.25.29.37.49.35.59v0l-.06.67v.06a7.64,7.64,0,0,0,.15,1l-.32.17V189c-.4.15-.94.38-1.59.7a3.31,3.31,0,0,1-.82.19v-.13a1,1,0,0,1-.42.17.94.94,0,0,1-.45-.21,3.84,3.84,0,0,0,.17-.78l.09-.48.1-.61a5.34,5.34,0,0,0,.32-1.37c0-.14,0-.54,0-1.2a.9.9,0,0,0,.46-.67,4.28,4.28,0,0,0-.17-1,5.41,5.41,0,0,1-.21-1.11l0-.67v-3.62q0-.71.21-.78a3.07,3.07,0,0,0,.78-.33v-.3l-.19-.19a1.14,1.14,0,0,1-.38.07c-.15,0-.25,0-.29-.09l-.72-1-1-.17-.5-.13c-.35,0-.89.39-1.6,1.16a.53.53,0,0,1-.11-.3,5.93,5.93,0,0,1,.76-1.19c.32-.43.63-.64.93-.64A8.46,8.46,0,0,1,285.85,174.52Z"/><path class="cls-1" d="M300.54,156a1.52,1.52,0,0,0,.53-.23,4.22,4.22,0,0,1,.78-.44,3.14,3.14,0,0,0,1-.82h.19q.48,0,.48.57v0c0,.08,0,.17,0,.27s0,.11,0,.13l.21.73-.09,1.77c0,1.14,0,1.73,0,1.79a1.4,1.4,0,0,1-.36.56l-.12.68.44.06a4.08,4.08,0,0,1,.13.76,1.26,1.26,0,0,1-.45.84c0,.39,0,.64,0,.75a.63.63,0,0,0,.28.47c0,.26,0,.46,0,.59l-.11,2.62v2.67a2,2,0,0,1-.38.82,1,1,0,0,0-.12.42s.1.38.29,1.06v.1a1.07,1.07,0,0,1-.44.71l.46,1,.23.17v1.31l.07,4.73-.38.23a6.14,6.14,0,0,1,.06.75c0,.06,0,.4-.12,1v.57l.65.08-.07.15.38,3.43,0,.88.13.63a4.76,4.76,0,0,0-.42.74.53.53,0,0,0,.1.27,8.53,8.53,0,0,0-1.18.63,4.52,4.52,0,0,1-.49.27,1.43,1.43,0,0,1-.41,0,1.55,1.55,0,0,1-.82.4.87.87,0,0,1-.29-.09c0-.21,0-.38,0-.52a3.78,3.78,0,0,0-.09-.66,1.35,1.35,0,0,1,0-.33s.06-.26.17-.65l0-.47.08-.63-.06-.4,1.77-1.13-1.71-1.18,0-.27.14-.76.19-.52a5.37,5.37,0,0,0-.38-.76.56.56,0,0,1-.06-.23,8.56,8.56,0,0,1,.32-.89,3.56,3.56,0,0,0,.25-1.13l-.48-.25v-.72c0-.32-.05-.53-.05-.63s.08-.35.23-.92a1.24,1.24,0,0,0,0-.34c0-.49,0-1-.09-1.64a4.38,4.38,0,0,1,0-.59,3.13,3.13,0,0,1,.34-.94,4.33,4.33,0,0,1,.12-1l-.44-.53V167.4a1.14,1.14,0,0,0,.36-.43,7.67,7.67,0,0,1,.34-.82,2.67,2.67,0,0,1-.72-.37,4.48,4.48,0,0,0,.15-.74c0-.14-.13-.28-.38-.42a4,4,0,0,1-.06-.76l0-.86a1.7,1.7,0,0,1,.3-.65.29.29,0,0,0,.06-.17s0-.16-.11-.41-.13-.37-.14-.39l-.06-.12,1.57-1.12-1.07-1.45a4.69,4.69,0,0,1-.82-1.28,3.47,3.47,0,0,1,.13-.69A5.23,5.23,0,0,0,300.54,156Z"/><path class="cls-1" d="M321.29,174.44,322,174a3.82,3.82,0,0,0,.45.48,1.88,1.88,0,0,0,.44.21,19,19,0,0,1,1.81,1.77,3.55,3.55,0,0,1,.69,1c.11.27.23.59.36,1,.08.2.18.45.29.76l-.15.15a6.19,6.19,0,0,1-.63-.19l-.8.29-.71-.13-.63.17a16.24,16.24,0,0,0-1.37-.92,4.59,4.59,0,0,0-1,.86c-.89-.17-1.37-.25-1.43-.25a6.15,6.15,0,0,0-.79.06l-.11-.08c-.22,0-.83,0-1.83,0l-.78.08-1,.09-1,.16-.88,0a14.48,14.48,0,0,1-1.66.45,7.76,7.76,0,0,1-.21,1,2.36,2.36,0,0,1-.51.7c.45.31.69.52.72.65a9.46,9.46,0,0,0,.39,1.81l.38.21-.1.77.65.17a2.23,2.23,0,0,0,.55,1.16,2.08,2.08,0,0,0,1,.38q.1.65.33.78a1.68,1.68,0,0,0,.76.16l.36.55a2,2,0,0,1,.4,0,8,8,0,0,1,1.26.52,1.14,1.14,0,0,0,.55.13,4.49,4.49,0,0,0,1.07-.25l1.34-.15,1-.29a4.41,4.41,0,0,0,1-.13,10.36,10.36,0,0,0,1.3-.74,4.64,4.64,0,0,0,1.08-.77,7.21,7.21,0,0,0,.71-1,.65.65,0,0,1,.59-.25,1.08,1.08,0,0,1,.55.27,4,4,0,0,1-.28,1c-.59,1-1,1.65-1.11,2a1.2,1.2,0,0,0-.46-.12,2.15,2.15,0,0,0-.7.42,2,2,0,0,1-.94.29,14.57,14.57,0,0,1-1.81.42,9.52,9.52,0,0,0-1.09.15l-.68.21-1.24-.19-.73.13-.36,0a7.21,7.21,0,0,1-.78.06q-.27,0-1.53-.15l-.4,0-.44-.27c-1.06-.32-1.64-.51-1.75-.57a7.33,7.33,0,0,1-.71-.63s-.28-.18-.74-.46-.6-.42-.63-.55l-.38-.67a5.37,5.37,0,0,0-.71-.8,1.12,1.12,0,0,0,.21-.51s-.19-.43-.55-1.17a5.85,5.85,0,0,1-.15-1.79,6.32,6.32,0,0,1,.3-1.51,4.38,4.38,0,0,1,.35-.95l.72-.84.46-1c.48-.45,1-.95,1.64-1.51l1.54-.95,1.55-1.07.57-.11,1.6-.5,1-.08a11.13,11.13,0,0,1,1.36-.47A1.57,1.57,0,0,1,321.29,174.44Zm-2.44,3.15.36.44.57-.1a5.72,5.72,0,0,0,1.13-.3l1.2.11s.05-.07.11-.21,0-.16,0-.21a.83.83,0,0,0-.25-.47,2,2,0,0,1-.21-.25c-.34-.45-.55-.66-.64-.63l-.69-.33a1.82,1.82,0,0,1-.4-.49,19.27,19.27,0,0,0-2.08-.08l-.42,0-.72.42a9.15,9.15,0,0,1-1.15.29c-.59.21-1.11.42-1.56.61-.1.07-.37.31-.82.72l-.48.37v.13l0,0,1.54.61.46.47.82-1a.35.35,0,0,1,.23-.09s.38.09,1,.28h0a7.35,7.35,0,0,0,1.2-.21A3.15,3.15,0,0,1,318.85,177.59Z"/><path class="cls-1" d="M335.06,180.83l.13-.76a2.25,2.25,0,0,1-.49,0c-.12,0-.31-.16-.56-.44a10.2,10.2,0,0,0-1.58-1.24c-.07-.59-.1-.9-.1-.93a.58.58,0,0,0-.19-.27l-.7.1c-.26-.28-.45-.46-.54-.54a9.18,9.18,0,0,1-1.31-1.24,7.11,7.11,0,0,1,1.26-1.16,9.44,9.44,0,0,1,1.69-.52,1.82,1.82,0,0,0,.27.52l.61.65.67.89.42.52a4.66,4.66,0,0,0,.46.91,1.29,1.29,0,0,0,.7.21,8.79,8.79,0,0,0,.78.84,5.58,5.58,0,0,1,.9,1.13,2,2,0,0,1-.09.55,1.2,1.2,0,0,0,.74.46,8.42,8.42,0,0,0,.95-1.22c.73,0,1.09-.27,1.09-.82,0-.11,0-.24,0-.4l1.3-1.34v-.23a.92.92,0,0,1,.07-.36s.18-.25.52-.67a3.11,3.11,0,0,0,.29-.49,3.41,3.41,0,0,1,.32-.51,3.37,3.37,0,0,1,.53-.41,2.87,2.87,0,0,1,1.24-.68.42.42,0,0,1,.48.47,1.16,1.16,0,0,1-.15.52c0,.06-.33.44-.9,1.16l-.59.92-.82.82-.82,1.14-.57.52-.52.59c-1.14,1.05-1.69,1.78-1.66,2.17l.73.06.36.51h.4c.49.54,1.12,1.19,1.89,1.93a8.64,8.64,0,0,0,1.39,1.11l-.11.63a1.1,1.1,0,0,1,.76.36l.34-.12a8.33,8.33,0,0,0,1.09,1,8.62,8.62,0,0,1,1.18.94,4.17,4.17,0,0,1,.25.59,3.82,3.82,0,0,1-1,1,6,6,0,0,0-.67.4,1.89,1.89,0,0,1-.74.38.63.63,0,0,1-.44-.28l-2.38-2.63-.69-1.45-.5.09a8.33,8.33,0,0,1-.91-.86,4.72,4.72,0,0,0-1-1c-.22-.13-.44-.26-.65-.4a2.43,2.43,0,0,0-.5-1.16h-.36a1.35,1.35,0,0,0-.25.51,1.91,1.91,0,0,1-.15.39l-.78.66a6.42,6.42,0,0,1-1.89,1.89,3.59,3.59,0,0,0-1,1.47,10.83,10.83,0,0,1-1,1.37,4.27,4.27,0,0,1-1.07.8l-.14.48a.64.64,0,0,1-.43.19c-.74,0-1.11-.27-1.11-.8a1.2,1.2,0,0,1,.36-.69,14.7,14.7,0,0,1,2.46-2.31c.29-.23.45-.35.47-.38l1.23-1.6.53-.46a6.57,6.57,0,0,0,.59-.59,5.33,5.33,0,0,1,.56-.67c.38-.38.57-.65.57-.8s-.15-.37-.46-.66A6.09,6.09,0,0,1,335.06,180.83Z"/><path class="cls-1" d="M238.76,239.51q-.73,3.78-1.3,8.19a95.35,95.35,0,0,1-18.83,2.09,47.21,47.21,0,0,1-14.71-2.32,33.06,33.06,0,0,1-12.34-7.18,28.88,28.88,0,0,1-7.64-11.42,40.7,40.7,0,0,1-2.4-14.08,45.82,45.82,0,0,1,2.66-15.49,32.28,32.28,0,0,1,8.06-12.65,34.43,34.43,0,0,1,13-7.77,49.61,49.61,0,0,1,16-2.58,86.76,86.76,0,0,1,17.89,1.87c0,1.77.22,4.46.57,8.09a70.74,70.74,0,0,0-9.86-2.38,54.28,54.28,0,0,0-7.72-.59,37.2,37.2,0,0,0-11.89,1.9,26.67,26.67,0,0,0-10.07,6.08,27.44,27.44,0,0,0-6.7,10.24,35.14,35.14,0,0,0-2.32,12.65A36,36,0,0,0,193,225.74a23.26,23.26,0,0,0,5.69,9.26,25.94,25.94,0,0,0,9.1,5.79,33,33,0,0,0,11.84,2A66.68,66.68,0,0,0,238.76,239.51Z"/><path class="cls-1" d="M267.67,194.6a34.52,34.52,0,0,1,10.43,1.57,22,22,0,0,1,8.58,5,21.58,21.58,0,0,1,5.51,8.56,31.65,31.65,0,0,1,1.87,10.9,35.63,35.63,0,0,1-2,11.89,27.79,27.79,0,0,1-5.64,9.65,21.57,21.57,0,0,1-8.86,5.82,33.68,33.68,0,0,1-11.24,1.85,32.83,32.83,0,0,1-10.54-1.67,22.21,22.21,0,0,1-8.58-5.22,22.91,22.91,0,0,1-5.5-8.68,31.21,31.21,0,0,1-1.88-10.77,33.51,33.51,0,0,1,3.44-15.31A22.4,22.4,0,0,1,253.38,198,31.34,31.34,0,0,1,267.67,194.6Zm-.23,6.63a18.63,18.63,0,0,0-9.77,2.66,15.77,15.77,0,0,0-6.59,8A31.28,31.28,0,0,0,249,223.55a26.48,26.48,0,0,0,1.77,9.94,15.21,15.21,0,0,0,5.83,7.12,17.21,17.21,0,0,0,9.79,2.71,20.53,20.53,0,0,0,7.4-1.33,14.83,14.83,0,0,0,6.09-4.41,19.76,19.76,0,0,0,3.86-7.53,34.75,34.75,0,0,0,1.25-9.37,28.84,28.84,0,0,0-1.25-8.6,14.3,14.3,0,0,0-9.66-9.86A22.6,22.6,0,0,0,267.44,201.23Z"/><path class="cls-1" d="M295.75,248.64q2.49-32.7,2.6-52.84l4.7.06c1.15,0,2.66,0,4.54-.06l-.69,10.44c.87-1.47,1.56-2.59,2.09-3.37a16.57,16.57,0,0,1,2.08-2.48,17.92,17.92,0,0,1,3.08-2.42,17.53,17.53,0,0,1,4.18-1.88A31.51,31.51,0,0,1,323.2,195a34.41,34.41,0,0,1,4.93-.37,34.06,34.06,0,0,1,8.67,1.1,15.87,15.87,0,0,1,6.86,3.57,12.32,12.32,0,0,1,3.6,5.56,23.13,23.13,0,0,1,.91,6.62c0,.45,0,1.32-.05,2.61s-.11,3-.21,5.06l-1,21.85q-.11,3.14-.16,7.67c-1.56-.07-3.05-.1-4.44-.1-1.7,0-3.31,0-4.8.1q.52-6.31.79-12.15l.68-12.16c.21-4.17.32-7.31.32-9.44a14.73,14.73,0,0,0-1.57-7.32,10.1,10.1,0,0,0-5-4.23,19.38,19.38,0,0,0-7.73-1.49,18.41,18.41,0,0,0-10.39,2.87,17.37,17.37,0,0,0-6.16,7.57,35.38,35.38,0,0,0-2.15,10.32q-.79,8.19-1.11,26c-1.94-.07-3.45-.1-4.52-.1S297.93,248.57,295.75,248.64Z"/><path class="cls-1" d="M391.11,240.71c-.07.56-.25,1.59-.54,3.11s-.55,3-.76,4.46a53.44,53.44,0,0,1-7.33,1.2c-2.35.2-4.41.31-6.18.31a34.59,34.59,0,0,1-10.41-1.51,20.53,20.53,0,0,1-13.53-13.59,34.91,34.91,0,0,1-1.67-10.83,39.3,39.3,0,0,1,2.71-14.55A22.54,22.54,0,0,1,362,198.52q5.84-3.92,15.9-3.92a52.72,52.72,0,0,1,14.45,2c.21,2.95.4,5.39.58,7.3a63.88,63.88,0,0,0-8.09-2.11,33.26,33.26,0,0,0-5.79-.55,19.27,19.27,0,0,0-8.21,1.67,17.3,17.3,0,0,0-6.18,4.74,18.83,18.83,0,0,0-3.68,7.31,33.22,33.22,0,0,0-1.12,8.6,27,27,0,0,0,1.82,10.33,13.47,13.47,0,0,0,6.39,6.86,21.45,21.45,0,0,0,10.25,2.42A40.9,40.9,0,0,0,391.11,240.71Z"/><path class="cls-1" d="M437.71,240.35q-.63,2.86-1.25,7.3a72.1,72.1,0,0,1-8.69,1.69,60.22,60.22,0,0,1-7.33.45,40.28,40.28,0,0,1-11.71-1.57,20.06,20.06,0,0,1-8.89-5.45,23,23,0,0,1-5.32-8.89,34.21,34.21,0,0,1-1.62-10.59,34.79,34.79,0,0,1,3-14.42,23.48,23.48,0,0,1,8.94-10.46q6-3.81,15.15-3.81a29.42,29.42,0,0,1,9.08,1.39,18,18,0,0,1,7.2,4.19,19,19,0,0,1,4.43,7,25.48,25.48,0,0,1,1.56,9,20.83,20.83,0,0,1-.31,3.65h-39.8q-.21,2.86-.21,4.38a22.33,22.33,0,0,0,2.3,10.09,15.5,15.5,0,0,0,6.78,7,21.66,21.66,0,0,0,10.33,2.38Q428.05,243.69,437.71,240.35Zm-35.16-24.83h31.09a30.88,30.88,0,0,0-.42-5.11,14.66,14.66,0,0,0-1.36-3.78,10.63,10.63,0,0,0-2.68-3.39,11.62,11.62,0,0,0-4.07-2.19,16.63,16.63,0,0,0-5.14-.76,19.18,19.18,0,0,0-5.66.83,16.85,16.85,0,0,0-4.74,2.3,15.13,15.13,0,0,0-3.5,3.41,16.92,16.92,0,0,0-2.14,3.79A34.54,34.54,0,0,0,402.55,215.52Z"/><path class="cls-1" d="M441.84,272.22q1.05-13.46,2-36.62t1-37.87q8.55-1.81,13.69-2.47a80.71,80.71,0,0,1,10.3-.66A35.39,35.39,0,0,1,483,197.19a18.7,18.7,0,0,1,9.33,9.07,31.61,31.61,0,0,1,3.34,14.68,38.3,38.3,0,0,1-1.57,11,28.64,28.64,0,0,1-4.77,9.47,20.82,20.82,0,0,1-7.75,6.29,23.88,23.88,0,0,1-10.13,2.11A25.1,25.1,0,0,1,465,249a21.87,21.87,0,0,1-5.35-2.11,17.1,17.1,0,0,1-3.81-2.92,39.38,39.38,0,0,1-3.73-4.85l-.64,20.65c-.14,3.37-.21,5.81-.21,7.3v5.17c-1.77-.07-3.31-.11-4.62-.11S443.82,272.15,441.84,272.22Zm12-68.28-.37,4-.26,5.43q-.21,4.28-.31,7c-.07,1.79-.11,3.05-.11,3.78a31.86,31.86,0,0,0,.81,7.31,14.77,14.77,0,0,0,3.24,6.28,15.8,15.8,0,0,0,5.71,4.3,16.42,16.42,0,0,0,6.78,1.46,15.44,15.44,0,0,0,8.89-2.71,17.7,17.7,0,0,0,6.24-8.08,30.28,30.28,0,0,0,2.24-11.74,24.19,24.19,0,0,0-2.35-11.06,14.76,14.76,0,0,0-6.31-6.7,19.19,19.19,0,0,0-9-2.06A45.67,45.67,0,0,0,453.79,203.94Z"/><path class="cls-1" d="M524.27,241.76q-.57,2.55-1.25,6.78a47.67,47.67,0,0,1-5.63,1c-1.4.14-2.72.21-4,.21a19.73,19.73,0,0,1-7.48-1.18,8.77,8.77,0,0,1-4.36-3.75,13.86,13.86,0,0,1-1.51-7c0-.38,0-1.06.05-2s.21-4.36.53-10.17l1.28-23.37h-7q.21-2.19.36-6.26h7.11c.18-1.95.35-5.27.53-10q4.89-.95,8.27-1.77-.36,7.71-.41,11.73h14.49q-.25,3.28-.31,6.26H510.56l-1.39,29.37-.05,2.24a14.39,14.39,0,0,0,.86,5.71,5.38,5.38,0,0,0,2.57,2.74,8.11,8.11,0,0,0,3.6.83A22.21,22.21,0,0,0,519,243Q520.48,242.75,524.27,241.76Z"/><path class="cls-1" d="M521.26,247.65l-.31-3.83q0-.63-.42-4a37.41,37.41,0,0,0,14.81,3.49,16.72,16.72,0,0,0,6-.94A7.4,7.4,0,0,0,545,239.6a6.79,6.79,0,0,0,1.23-3.82,7.56,7.56,0,0,0-.34-2.18,8.15,8.15,0,0,0-1-2.1,12.47,12.47,0,0,0-2-2.24q-1.33-1.22-5.53-4.61t-6.36-5.3a27.39,27.39,0,0,1-3.7-3.91,14.84,14.84,0,0,1-2.27-4,12.06,12.06,0,0,1-.73-4.12,11.4,11.4,0,0,1,2.11-6.47,12.57,12.57,0,0,1,6.1-4.67,26.08,26.08,0,0,1,9.36-1.54,69.12,69.12,0,0,1,13.2,1.41q.21,4.06.52,7.46a30.17,30.17,0,0,0-11.53-2.4,19.36,19.36,0,0,0-5.71.81,7.41,7.41,0,0,0-3.86,2.43,5.76,5.76,0,0,0-1.22,3.54,7.12,7.12,0,0,0,.41,2.4,9.09,9.09,0,0,0,1.49,2.48,19.84,19.84,0,0,0,2.58,2.63q1.51,1.3,6,4.91a74.32,74.32,0,0,1,6.18,5.32,24.34,24.34,0,0,1,2.87,3.54,14,14,0,0,1,1.74,3.63,12.38,12.38,0,0,1,.55,3.68,11.72,11.72,0,0,1-2.16,6.78,13.93,13.93,0,0,1-6.44,4.85,25.69,25.69,0,0,1-9.6,1.72c-1.5,0-3.25-.1-5.27-.29s-3.73-.42-5.14-.68S523.35,248.17,521.26,247.65Z"/><path class="cls-2" d="M551.58,181.07l3.67,0a.39.39,0,0,0,.18,0c1.88-.36,3.13.54,4.36,1.86,2.61,2.78,5.36,5.43,8.07,8.11.77.76,1.37,1.69,2.22,2.39a.71.71,0,0,1,.25.6,27.79,27.79,0,0,1-.08,3.16l0,2.25c-.57.27-.81-.23-1.09-.51-2.18-2.15-4.34-4.33-6.51-6.49a2.4,2.4,0,0,0-.85-.7,9.32,9.32,0,0,0-.13,2.23c0,.37.17.85-.39,1a33,33,0,0,1,.12-4.22c.08-.64-.16-.81-.79-.81a16,16,0,0,1-3.24-.14c.51-.48,1.18-.07,1.79-.36a3,3,0,0,0-.94-1.28c-2-2-4.07-4.06-6.09-6.11C551.8,181.88,551.29,181.64,551.58,181.07Z"/><path class="cls-3" d="M561.23,195.09a11.82,11.82,0,0,0,.16-3c0-.24-.13-.57.16-.69s.44.2.61.37l7.13,7.13c.27.26.47.62.91.65,0,1.59.25,3.21-.72,4.64a1.46,1.46,0,0,1-.76-.55l-6.83-6.82a2.87,2.87,0,0,1-.67-.91Z"/><path class="cls-4" d="M570.25,197.27a1.55,1.55,0,0,1,0-.48c.52-2.19-.69-3.64-2.09-5Q563,186.68,558,181.54a1.16,1.16,0,0,0-.86-.29,5.18,5.18,0,0,1-1.88-.14c2.17-.09,4.34.12,6.52.17,2.76,3.06,5.82,5.82,8.65,8.82A71.51,71.51,0,0,1,570.25,197.27Z"/><path class="cls-5" d="M551.58,181.07c0,.44.38.65.64.91,2,2.07,4.11,4.12,6.17,6.18.47.47,1.25,1.08,1.08,1.54s-1.15.11-1.77.2c-.12,0-.25,0-.38,0l-1.9,0a4,4,0,0,1-1-.82l-6-6a17.43,17.43,0,0,0-1.61-1.49C548.29,180.54,550,181,551.58,181.07Z"/><path class="cls-6" d="M570.42,190.1c-.41,0-.61-.33-.85-.57-2.36-2.35-4.7-4.71-7.06-7.05a2.17,2.17,0,0,1-.74-1.2l1.17,0a18.4,18.4,0,0,0,2.57,0,1.83,1.83,0,0,1,1.45.59c1.08,1.09,2,2.31,3.14,3.35a1.1,1.1,0,0,1,.41.84,30.13,30.13,0,0,1-.08,3.8A.23.23,0,0,1,570.42,190.1Z"/><path class="cls-3" d="M561.22,195.88c2.81,2.71,5.6,5.43,8.26,8.28a3.39,3.39,0,0,1-2.11,1.76,21,21,0,0,1-3.57-3.41c-.77-.84-1.56-1.66-2.35-2.49-.16,1,.26,2-.26,3a10.43,10.43,0,0,1-.1-3.39C561.07,198.36,561.17,197.12,561.22,195.88Z"/><path class="cls-3" d="M546.81,181.64a.83.83,0,0,1,.69.25l7.92,8c-2.06,0-4.13,0-6.19-.17.52-.45,1.15-.15,1.71-.26-1.94-1.77-3.58-3.86-5.5-5.68a.72.72,0,0,1-.2-.42A3.66,3.66,0,0,1,546.81,181.64Z"/><path class="cls-1" d="M561.19,203V199.7l.21-.11,6,6.33A4.43,4.43,0,0,1,561.19,203Z"/><path class="cls-3" d="M545.24,183.37c2.21,1.85,3.91,4.2,6.13,6.21a10.92,10.92,0,0,1-2.14.15C545.74,189.6,543.68,186.31,545.24,183.37Z"/><path class="cls-7" d="M570.43,189.92c-.11-1.36.41-2.86-.23-4.06s-1.93-1.93-2.74-3.05a3.12,3.12,0,0,0-3.22-1.38,1.74,1.74,0,0,1-1.3-.13l7.18.14c.32,0,.58.06.56.46C570.54,184.57,570.74,187.26,570.43,189.92Z"/><path class="cls-1" d="M168.12,89.31c0-.51.26-1.42-.39-1.41s-.29.93-.29,1.43q0,58.23,0,116.44t0,116.44c0,.47-.25,1.35.26,1.35.77,0,.41-.88.41-1.37Q168.14,205.76,168.12,89.31Z"/><path class="cls-1" d="M167.69,324.06a.78.78,0,0,1-.58-.25,1.6,1.6,0,0,1-.19-1.26c0-.12,0-.24,0-.34q0-54.79,0-109.59v-13q0-55.17,0-110.32a2.49,2.49,0,0,0,0-.36,1.6,1.6,0,0,1,.18-1.29.85.85,0,0,1,.63-.28.82.82,0,0,1,.68.27,1.66,1.66,0,0,1,.24,1.32c0,.12,0,.23,0,.32q0,116.45,0,232.88a1.88,1.88,0,0,0,0,.31,1.52,1.52,0,0,1-.19,1.24,1,1,0,0,1-.76.32Z"/><path class="cls-8" d="M88.31,200.24c-4.56-.74-8.06-3-10.1-7.21s-.88-9.25,4.93-9.72a6.37,6.37,0,0,1,2.22,0c4.78,1.24,8.34,3.86,9.81,8.8,1.21,4.1-.47,7.11-4.33,8.12A9.32,9.32,0,0,1,88.31,200.24Z"/><path class="cls-8" d="M55.71,237.54c-2.32-3.79-2.51-7.63,0-11.39,3-4.47,9-4.78,13-1.74a9.51,9.51,0,0,1,2.76,12.51,3.55,3.55,0,0,1-2.46.5C64.62,237.49,60.16,237.3,55.71,237.54Z"/><path class="cls-8" d="M105.07,191.85c-5.36-.67-10.17-6.14-10.3-10.83-.09-3.08,2.11-4.74,5-4.36a12,12,0,0,1,10.06,9c.74,3.31-.08,4.8-3.23,6.14A3.25,3.25,0,0,1,105.07,191.85Z"/><path class="cls-1" d="M116,226.28c1.62,4.48,1.35,8.68-2.12,12.25-2.47,2.54-5.54,2.22-8-.05a10.47,10.47,0,0,1-3.16-7.07,24.88,24.88,0,0,1,0-4.14l.21-1.28a15.74,15.74,0,0,1,4.44-.21c2.18-.05,4.36,0,6.54,0A3,3,0,0,1,116,226.28Z"/><path class="cls-3" d="M117.32,217.53a15.73,15.73,0,0,1,.78-5.1c1.07-2.89,4.79-3.17,6.81-1.58a11.25,11.25,0,0,1,4.33,8c.07.63.21,1.26.31,1.88-.36.5,0,1.11-.26,1.62a18.28,18.28,0,0,1-1.29,3.08c-1.69,2.5-4.62,2.71-6.81.6a12.35,12.35,0,0,1-3.62-6.9C117.31,218.65,117.66,218,117.32,217.53Z"/><path class="cls-8" d="M99.54,217a12.3,12.3,0,0,1-1,5.6A7.21,7.21,0,0,1,89,226.37a12.06,12.06,0,0,1-7.47-9.47c-.33-.56.08-.78.48-.94a4.24,4.24,0,0,1,1.58-.19c4.59,0,9.18,0,13.77,0a4.06,4.06,0,0,1,1.58.21C99.41,216.15,99.36,216.65,99.54,217Z"/><path class="cls-6" d="M99.26,216.28c-5.39,0-10.78,0-16.17,0-.56,0-1.35-.36-1.57.61-1.15-4,.12-8.18,3-9.93a6.92,6.92,0,0,1,3.1-1.07,4.07,4.07,0,0,1,1.9,0c4.94,1.15,8.18,4.06,9.48,9,0,.14.17.26.26.39A1,1,0,0,1,99.26,216.28Z"/><path class="cls-8" d="M119.9,204.41c-3.71-1.92-5.23-5.33-6.21-9.11a8,8,0,0,1,0-2.54,3.36,3.36,0,0,1,2.67-3.6,4.06,4.06,0,0,1,1.9-.06A11,11,0,0,1,126,202a7.05,7.05,0,0,1-1.33,2.31A14.65,14.65,0,0,1,119.9,204.41Z"/><path class="cls-8" d="M52.42,175.66c1.16-2.79,3.35-4.07,7.32-3.84a8.74,8.74,0,0,1,7,3.6,4.32,4.32,0,0,1-.84,5.79c-3.29,2.91-12.61,1.39-13.44-3.32A5.09,5.09,0,0,1,52.42,175.66Z"/><path class="cls-8" d="M43.4,247.23c.66,4.87-2.78,8.65-8.67,7.65-2.88-.48-5.34-4.09-5.41-7.65.42-.83,1.22-.8,2-.81,3.38,0,6.77,0,10.15,0C42.18,246.43,43,246.43,43.4,247.23Z"/><path class="cls-8" d="M114.32,257.54c.3,3.75-1.34,6.61-4.19,8.83a4.32,4.32,0,0,1-4.86.39,4.6,4.6,0,0,1-2.11-4.17,11.68,11.68,0,0,1,1-5.35,2.86,2.86,0,0,1,1.81-.51c2.14,0,4.27,0,6.41,0C113.11,256.75,113.89,256.73,114.32,257.54Z"/><path class="cls-8" d="M99.27,168.64c-3-.85-5.6-2.25-6.81-5.37a2.75,2.75,0,0,1,2.35-4c3.75-.53,8.09,2.46,8.85,6.12.27,1.33-.53,2.53-2.19,3.29A7.72,7.72,0,0,1,99.27,168.64Z"/><path class="cls-8" d="M134.66,230.8c.34-2.77,1.54-4.35,3.39-4.46,1.6-.1,3.21,1.45,3.89,3.86.8,2.84.81,5.58-1.46,7.85-1.3,1.29-3,1.06-4.2-.36a7.57,7.57,0,0,1-1.63-5.3A3.06,3.06,0,0,1,134.66,230.8Z"/><path class="cls-8" d="M133.48,194.15a8.41,8.41,0,0,1-4.16-8.84,2.14,2.14,0,0,1,1.88-1.68,4.76,4.76,0,0,1,1.88,0,8.84,8.84,0,0,1,5.1,6.48c.49,2.39-.8,4.14-3.11,4.23C134.57,194,134,194.27,133.48,194.15Z"/><path class="cls-8" d="M43.4,247.23a3.94,3.94,0,0,0-1.06-.3q-6,0-12,0a3.75,3.75,0,0,0-1.06.3c.11-3.39,1.67-5.52,4.33-6.43,3-1,6.91.8,8.43,3.07A7.7,7.7,0,0,1,43.4,247.23Z"/><path class="cls-8" d="M42.14,165.56c1.26.55,2.54,1.25,2.49,2.8s-1.16,2.76-2.68,3.48c-2,.94-4.13.68-6.17.48-1.42-.15-2-1.63-2.28-2.95-.18-.87,1.61-3,2.65-3.36.5-.18,1-.31,1.53-.46A31.61,31.61,0,0,1,42.14,165.56Z"/><path class="cls-8" d="M101.09,283.05A7,7,0,0,1,106,277.2a5.78,5.78,0,0,1,2.23-.07c1.81,1.61,2.15,2.72,1.26,4.89a7.53,7.53,0,0,1-4.69,4.45c-1.74.59-2.94-.05-3.72-1.84A3.82,3.82,0,0,1,101.09,283.05Z"/><path class="cls-8" d="M55.71,237.54c.22-1,1-.61,1.58-.61,4.74,0,9.49,0,14.24,0-1.09,2.85-3.5,4-6.17,4.91a14.72,14.72,0,0,1-3.51,0C59.27,241.17,57,240,55.71,237.54Z"/><path class="cls-8" d="M116,226.28H104.78a3,3,0,0,1-1.87-.28,8.44,8.44,0,0,1,2.45-4.32c1.7-1.88,4.9-2,7.14-.25A9.52,9.52,0,0,1,116,226.28Z"/><path class="cls-8" d="M145.87,186.26c-1.94.29-2.9-.91-3.74-2.33a4.32,4.32,0,0,1,0-4.53c.49-.87,3.29-1,4.46-.32a5.19,5.19,0,0,1,2,5.21C148.17,185.65,147.48,186.63,145.87,186.26Z"/><path class="cls-8" d="M96,152.75c-2.42.21-5.54-2.35-5.36-4.58A1.83,1.83,0,0,1,92,146.35a6.05,6.05,0,0,1,6.92,3C99.84,151.25,98.52,152.76,96,152.75Z"/><path class="cls-8" d="M152.51,243.68a7.51,7.51,0,0,1-.5,1.16c-.76,1.17-1.55,2.32-3.24,2s-1.86-1.62-2.18-2.88a7.53,7.53,0,0,1,0-2.55c.33-1.09.42-2.36,1.42-3a2.77,2.77,0,0,1,4.11,1.54c.16.39.29.8.43,1.19A7.8,7.8,0,0,1,152.51,243.68Z"/><path class="cls-8" d="M114.32,257.54c-1-.59-2.2-.27-3.3-.29-2.29-.05-4.58,0-6.87,0,1-1.77,2-3.57,4.16-4.19,3-.86,5,.38,5.77,3.43C114.17,256.84,114.24,257.19,114.32,257.54Z"/><path class="cls-8" d="M42.14,165.56H37.68A9,9,0,0,1,42.14,165.56Z"/><path class="cls-8" d="M61.85,241.82h3.51A5.22,5.22,0,0,1,61.85,241.82Z"/><path class="cls-1" d="M382.87,292.55a3.6,3.6,0,0,0,3.43,3.67,3.15,3.15,0,0,0,3.24-2.15h-3v-1.95h5.8v.4a6.05,6.05,0,1,1-6-6.07,6.11,6.11,0,0,1,5.75,4.14h-2.86a3,3,0,0,0-2.89-1.71A3.6,3.6,0,0,0,382.87,292.55Z"/><path class="cls-1" d="M396.58,298.4H394V286.63h4.41A3.65,3.65,0,0,1,402,290.4a3.58,3.58,0,0,1-2.69,3.67l3.38,4.33h-3.29l-2.81-4.2h0Zm0-9.73v3.48H398a1.62,1.62,0,0,0,1.56-1.75,1.64,1.64,0,0,0-1.56-1.73Z"/><path class="cls-1" d="M409.16,298.58a6.07,6.07,0,1,1,6.06-6.06A6.18,6.18,0,0,1,409.16,298.58Zm0-9.55a3.48,3.48,0,1,0,3.46,3.47A3.59,3.59,0,0,0,409.16,289Z"/><path class="cls-1" d="M426.34,286.63v7.18c0,3.14-1.8,4.77-4.87,4.77s-4.86-1.63-4.86-4.77v-7.18h2.59v6.8c0,1.63.51,2.55,2.27,2.55s2.27-.92,2.27-2.55v-6.8Z"/><path class="cls-1" d="M430.75,298.4h-2.59V286.63h4.41a3.64,3.64,0,0,1,3.6,3.77,3.57,3.57,0,0,1-3.6,3.8h-1.82Zm0-9.73v3.48h1.39a1.62,1.62,0,0,0,1.56-1.75,1.64,1.64,0,0,0-1.56-1.73Z"/><path class="cls-1" d="M453.52,294.84a6.08,6.08,0,0,1-3.23,3.23,6,6,0,0,1-2.36.47,6.06,6.06,0,0,1-6-6.06,5.81,5.81,0,0,1,.48-2.35,6,6,0,0,1,1.3-1.93,6.12,6.12,0,0,1,1.92-1.29,5.93,5.93,0,0,1,2.34-.47,6,6,0,0,1,2.36.47,6.28,6.28,0,0,1,1.93,1.29,6.13,6.13,0,0,1,1.3,1.93,5.81,5.81,0,0,1,.48,2.35A5.89,5.89,0,0,1,453.52,294.84Zm-2.16-5.77a4.84,4.84,0,0,0-8.26,3.41,4.7,4.7,0,0,0,1.42,3.43,4.84,4.84,0,1,0,6.84-6.84Z"/><path class="cls-1" d="M457.29,287.75v4.19h5.61v1.15h-5.61v5.31h-1.22V286.63h7v1.12Z"/><path class="cls-1" d="M480.53,294.4a6.08,6.08,0,1,1,0-3.81h-2.89a3.16,3.16,0,0,0-2.86-1.71,3.64,3.64,0,0,0,0,7.27,3.21,3.21,0,0,0,2.87-1.75Z"/><path class="cls-1" d="M487.63,298.58a6.07,6.07,0,1,1,6.06-6.06A6.18,6.18,0,0,1,487.63,298.58Zm0-9.55a3.48,3.48,0,1,0,3.46,3.47A3.6,3.6,0,0,0,487.63,289Z"/><path class="cls-1" d="M507.16,298.4l-1.38-8.12-2.31,8.12h-2.54l-2.3-8.12-1.39,8.12h-2.86l2.29-11.77h3.08l2.46,8.26,2.44-8.26h3.08L510,298.4Z"/><path class="cls-1" d="M513.74,298.4h-2.59V286.63h4.41a3.64,3.64,0,0,1,3.6,3.77,3.57,3.57,0,0,1-3.6,3.8h-1.82Zm0-9.73v3.48h1.39a1.62,1.62,0,0,0,1.56-1.75,1.64,1.64,0,0,0-1.56-1.73Z"/><path class="cls-1" d="M527.23,298.4l-.84-2.37H521.9l-.85,2.37h-2.79L523,286.63h2.2L530,298.4Zm-3.1-8.69-1.48,4.19h3Z"/><path class="cls-1" d="M537.8,298.4l-4-7.34v7.34h-2.6V286.63h2.6l4,7.34v-7.34h2.6V298.4Z"/><path class="cls-1" d="M542.47,298.4V286.63h2.6V298.4Z"/><path class="cls-1" d="M554,298.4h-6.82V286.63H554V289h-4.22v2.34h4v2.36h-4v2.37H554Z"/><path class="cls-1" d="M562.72,295.18c0-2.28-6.81-.81-6.81-5.16,0-2.42,2.26-3.57,4.4-3.57,2.43,0,4.61,1.08,4.7,3.76H562.5c-.14-1.23-.85-1.63-2.15-1.63-.73,0-1.75.35-1.75,1.23,0,2.1,6.8.59,6.8,5.08,0,2.77-2.47,3.79-4.88,3.79-2.6,0-5-1.28-5-4.16h2.64a2.17,2.17,0,0,0,2.45,2.05C561.44,296.57,562.72,296.24,562.72,295.18Z"/></svg>