<svg xmlns="http://www.w3.org/2000/svg" viewBox="0 0 1890 924.9"><defs><style>.cls-1{fill:#1c1c4c;}.cls-2{fill:none;stroke:#1c1c4c;stroke-miterlimit:10;stroke-width:7px;}</style></defs><title>logo</title><g id="Layer_2" data-name="Layer 2"><g id="Layer_1-2" data-name="Layer 1"><polygon class="cls-1" points="685.46 174.99 1269.58 174.99 979 0 685.46 174.99"/><polygon class="cls-1" points="747.72 195.71 747.72 536.7 851.5 536.7 851.5 278.75 747.72 195.71"/><polygon class="cls-1" points="919.7 195.71 919.7 536.7 1023.46 536.7 1023.46 278.75 919.7 195.71"/><polygon class="cls-1" points="1100.54 195.71 1100.54 536.7 1204.32 536.7 1204.32 278.75 1100.54 195.71"/><rect class="cls-1" x="706.82" y="587.23" width="541.04" height="22.02"/><rect class="cls-1" x="732.66" y="553.71" width="489.32" height="22.12"/><line class="cls-2" x1="1870.23" y1="893.15" x2="1490.56" y2="893.15"/><line class="cls-2" x1="399.45" y1="893.15" x2="19.77" y2="893.15"/><path class="cls-1" d="M453.44,924.9V862h10.49V924.9Z"/><path class="cls-1" d="M521,870.49v54.4H510.51v-54.4H481.74V862h68.15v8.51Z"/><path class="cls-1" d="M546.25,924.9,580.62,862h11.22l35,62.92H615.28l-8-15.52H564.71l-8,15.52Zm22.84-23.56h33.77L586,869.24Z"/><path class="cls-1" d="M647.22,924.9V862h10.46V916.1h47.67v8.8Z"/><path class="cls-1" d="M723.64,876.81c0-5.76,1.05-9.67,3.12-11.71s5.95-3.12,11.67-3.12h43.49c5.71,0,9.56,1,11.61,3.12s3,5.95,3,11.71V910q0,8.64-3,11.75c-2.05,2.08-5.9,3.14-11.61,3.14H738.44c-5.73,0-9.59-1.06-11.67-3.14s-3.12-6-3.12-11.75Zm10.48,39.29h52.09v-45.6H734.12Z"/><path class="cls-1" d="M874.13,924.9V862H884.6v26.94L923.87,862h15.31l-45.7,30.16,50.68,32.76H926.67L884.6,896.59V924.9Z"/><path class="cls-1" d="M963,924.9V862h60.62v8.37H973.5v17.58h30.59v8.3H973.5v20h50.6v8.67Z"/><path class="cls-1" d="M1049.09,924.9V862h6.57l47.09,42a59.15,59.15,0,0,1,7.17,7.94,98.37,98.37,0,0,1-.94-15.52V862h9.61V924.9h-5.86l-48.4-43.78c-1.81-1.64-2.82-2.54-3.07-2.79A21.08,21.08,0,0,1,1058,874a110.69,110.69,0,0,1,.73,13.82V924.9Z"/><path class="cls-1" d="M1151.27,924.9V862h10.5V924.9Z"/><path class="cls-1" d="M1182.12,924.9,1216.51,862h11.24l35,62.92h-11.59l-8-15.52h-42.52l-8,15.52ZM1205,901.34h33.77l-16.9-32.1Z"/><path class="cls-1" d="M1283.07,924.9V862h6.6l47.09,42a63.37,63.37,0,0,1,7.17,7.94,99.89,99.89,0,0,1-1-15.52V862h9.6V924.9h-5.83l-48.43-43.78-3.07-2.79A22.69,22.69,0,0,1,1292,874a110.42,110.42,0,0,1,.74,13.82V924.9Z"/><path class="cls-1" d="M1372.94,924.9,1407.35,862h11.19l35,62.92H1442l-8.06-15.52h-42.51l-8,15.52Zm22.89-23.56h33.75l-16.9-32.1Z"/><path class="cls-1" d="M1171.22,686.68V793.48h-18.07V686.68Zm-35,28.31v78.49h-18.07V715Zm0-28.31v15.61h-18.07V686.68Zm-94.77,106.79V715h13.9l2.22,10.1c6.25-6.73,12.92-10.1,19.87-10.1v16.07q-10,0-17.93,9.18v53.24ZM980,747.42h30.44v-.61c0-10.86-5-16.22-15-16.22C986,730.6,980.85,736.26,980,747.42ZM995.45,715c21.68,0,32.52,12.24,32.52,36.41a75.25,75.25,0,0,1-.7,9.79H980q0,16.52,22.1,16.52a115.58,115.58,0,0,0,21.68-2.14v15.61a99.77,99.77,0,0,1-22.93,2.29c-25.85,0-38.78-13.31-38.78-40.09C962.09,727.84,973.21,715,995.45,715ZM882.06,793.48V686.68h43.5c19.74,0,29.74,9.95,29.74,30,0,21.88-13.62,35-40.72,39.63l-2.5-17.59c16.26-3.37,24.32-10.4,24.32-21.42,0-8.87-4-13.31-12-13.31H900.12v89.51Zm-93.65-46.05h30.44v-.61c0-10.86-5-16.22-15-16.22C794.38,730.6,789.24,736.26,788.41,747.42ZM803.83,715c21.68,0,32.52,12.24,32.52,36.41a75.51,75.51,0,0,1-.69,9.79H788.41q0,16.52,22.1,16.52a115.58,115.58,0,0,0,21.68-2.14v15.61a99.76,99.76,0,0,1-22.93,2.29c-25.85,0-38.77-13.31-38.77-40.09C770.48,727.84,781.6,715,803.83,715ZM692.11,793.48V715H706l2.22,11.47Q718.45,715,731.58,715c17,0,25.29,9.64,25.29,29.07v49.42H738.95V744.06c0-8.72-3.89-13-11.67-13-5.84,0-11.53,2.45-17.09,7.65v54.77ZM608,754.31c0-26.32,11.67-39.48,35.3-39.48s35.3,13.16,35.3,39.48c0,26.16-11.81,39.32-35.3,39.32S608,780.47,608,754.31ZM626,754c0,16.37,5.84,24.48,17.37,24.48s17.23-8.11,17.23-24.48c0-16.07-5.7-24-17.23-24S626,737.94,626,754Zm-31.54-39v78.49H576.37V715Zm0-28.31v15.61H576.37V686.68ZM509,715h54.9v15.76l-36.41,47.74h35v15h-54.9v-15l37-47.74H509Zm-34.59,45.59a74.14,74.14,0,0,0-14.59-1.53c-8.62,0-12.92,3.21-12.92,9.79,0,6.89,3.61,10.4,10.84,10.4a26,26,0,0,0,16.68-6.12ZM428.94,769q0-23.41,30.85-23.41a78.76,78.76,0,0,1,14.59,1.53V741.3q0-10.56-13.76-10.56a105.74,105.74,0,0,0-26,3.67V718.81a99.62,99.62,0,0,1,26-3.82c21.13,0,31.69,8.72,31.69,25.86v52.63H481.89l-6.39-7a32.72,32.72,0,0,1-20.43,7C437.56,793.48,428.94,785.37,428.94,769Zm-13.61-54v78.49H397.26V715Zm0-28.31v15.61H397.26V686.68Zm-29.87,104.5a73.73,73.73,0,0,1-18.35,2.29c-25.43,0-38.08-13.62-38.08-40.7,0-25.24,12.65-37.79,38.08-37.79a73.66,73.66,0,0,1,18.35,2.3v15.61a75.47,75.47,0,0,0-17.1-2.14q-21.26,0-21.26,22c0,16.68,7.09,24.94,21.26,24.94a75.39,75.39,0,0,0,17.1-2.14ZM248.72,754.31c0-26.32,11.67-39.48,35.3-39.48s35.3,13.16,35.3,39.48c0,26.16-11.81,39.32-35.3,39.32S248.72,780.47,248.72,754.31Zm17.93-.31c0,16.37,5.84,24.48,17.37,24.48s17.23-8.11,17.23-24.48c0-16.07-5.7-24-17.23-24S266.65,737.94,266.65,754Zm-84.21,35.65V773.28c7.92,3.52,17.1,5.2,27.38,5.2,7.78,0,11.67-2.76,11.67-8.11s-2.64-8-7.78-8H200.79c-14.46,0-21.68-7.8-21.68-23.56,0-16.37,10.56-24.63,31.69-24.63a69.78,69.78,0,0,1,25.29,4.59v16.37a62.89,62.89,0,0,0-25.85-5.2q-14.59,0-14.59,8.26c0,5.2,2.92,7.8,8.48,7.8h11.53c15.84,0,23.77,7.8,23.77,23.56,0,16.37-10,24.63-30.16,24.63A73.82,73.82,0,0,1,182.44,789.65Zm-69.61,0V773.28c7.92,3.52,17.1,5.2,27.38,5.2,7.78,0,11.67-2.76,11.67-8.11s-2.64-8-7.78-8H131.17c-14.45,0-21.68-7.8-21.68-23.56,0-16.37,10.56-24.63,31.69-24.63a69.78,69.78,0,0,1,25.29,4.59v16.37a62.89,62.89,0,0,0-25.85-5.2Q126,730,126,738.24c0,5.2,2.92,7.8,8.48,7.8H146c15.84,0,23.77,7.8,23.77,23.56,0,16.37-10,24.63-30.16,24.63A73.82,73.82,0,0,1,112.83,789.65Zm-94.34,3.82H0L41.28,686.68H60.6l42.11,106.79H83.25l-11-29.22H40l6.12-17.14h19.6L50.45,707Z"/><path class="cls-1" d="M1823,756.28c0-25,11.09-37.49,33.52-37.49s33.52,12.5,33.52,37.49-11.22,37.34-33.52,37.34S1823,781.13,1823,756.28Zm17-.29c0,15.55,5.54,23.25,16.5,23.25s16.37-7.7,16.37-23.25c0-15.26-5.41-22.81-16.37-22.81S1840,740.73,1840,756Zm-30-37.05v74.54h-17.16V718.94Zm0-26.88v14.82h-17.16V692.06Zm-28.39,99.24a69.91,69.91,0,0,1-17.42,2.18c-24.15,0-36.16-12.93-36.16-38.65,0-24,12-35.89,36.16-35.89a70,70,0,0,1,17.42,2.18v14.82a71.71,71.71,0,0,0-16.24-2q-20.19,0-20.19,20.92c0,15.84,6.73,23.68,20.19,23.68a71.71,71.71,0,0,0,16.24-2Zm-93.85,2.18V718.94H1701l2.11,9.59c5.94-6.39,12.27-9.59,18.87-9.59V734.2q-9.5,0-17,8.72v50.56Zm-58.35-43.73h28.9v-.58c0-10.32-4.75-15.4-14.25-15.4C1635.11,733.76,1630.23,739.14,1629.43,749.74Zm14.65-30.8c20.59,0,30.88,11.62,30.88,34.58a71.29,71.29,0,0,1-.66,9.3h-44.87q0,15.69,21,15.69a110,110,0,0,0,20.59-2V791.3a94.6,94.6,0,0,1-21.78,2.18c-24.55,0-36.82-12.64-36.82-38.07C1612.41,731.15,1623,718.94,1644.09,718.94Zm-144.27,74.54V718.94H1513l2,10.75c6.07-7.12,13.33-10.75,21.91-10.75s14.25,3.49,17.42,10.32c7-6.83,14.12-10.32,21.78-10.32q23.36,0,23.36,28.33v46.2H1582.3V746.55c0-8.28-3.43-12.35-10.16-12.35q-7.52,0-14.65,7.41v51.87h-17V746.84q0-12.64-9.5-12.64c-4.88,0-9.64,2.47-14,7.41v51.87Zm-115.77,0V718.94h13.2l2,10.75c6.07-7.12,13.33-10.75,21.91-10.75s14.25,3.49,17.42,10.32c7-6.83,14.12-10.32,21.78-10.32q23.36,0,23.36,28.33v46.2h-17.16V746.55c0-8.28-3.43-12.35-10.16-12.35q-7.52,0-14.65,7.41v51.87h-17V746.84q0-12.64-9.5-12.64c-4.88,0-9.63,2.47-14,7.41v51.87Zm-79.86-37.2c0-25,11.09-37.49,33.52-37.49s33.52,12.5,33.52,37.49-11.22,37.34-33.52,37.34S1304.18,781.13,1304.18,756.28Zm17-.29c0,15.55,5.54,23.25,16.5,23.25s16.37-7.7,16.37-23.25c0-15.26-5.41-22.81-16.37-22.81S1321.21,740.73,1321.21,756Zm-28.39,33.27a72.13,72.13,0,0,1-27.06,4.94q-49.69,0-49.63-52.89,0-49.91,49.63-50c10,0,19.14,1.6,27.06,4.94v17a59,59,0,0,0-25.74-5.67c-22.17,0-33.26,11.19-33.26,33.71,0,24.41,11.09,36.47,33.26,36.47a59,59,0,0,0,25.74-5.67Z"/></g></g></svg>