<svg xmlns="http://www.w3.org/2000/svg" viewBox="0 0 3119.42 609.24"><defs><style>.cls-1{fill:#1c1c4c;}.cls-2{fill:none;stroke:#1c1c4c;stroke-miterlimit:10;stroke-width:7px;}</style></defs><title>logo_webiste</title><g id="Layer_2" data-name="Layer 2"><g id="Layer_1-2" data-name="Layer 1"><polygon class="cls-1" points="0 174.99 584.12 174.99 293.54 0 0 174.99"/><polygon class="cls-1" points="62.26 195.71 62.26 536.7 166.04 536.7 166.04 278.75 62.26 195.71"/><polygon class="cls-1" points="234.24 195.71 234.24 536.7 338 536.7 338 278.75 234.24 195.71"/><polygon class="cls-1" points="415.08 195.71 415.08 536.7 518.87 536.7 518.87 278.75 415.08 195.71"/><rect class="cls-1" x="21.37" y="587.23" width="541.04" height="22.02"/><rect class="cls-1" x="47.2" y="553.71" width="489.32" height="22.12"/><line class="cls-2" x1="3119.42" y1="487.75" x2="2636.9" y2="487.75"/><line class="cls-2" x1="1250.2" y1="487.75" x2="767.67" y2="487.75"/><path class="cls-1" d="M1318.82,528.09v-80h13.34v80Z"/><path class="cls-1" d="M1404.68,458.95v69.14h-13.33V458.95h-36.57V448.13h86.61v10.82Z"/><path class="cls-1" d="M1436.77,528.09l43.69-80h14.26l44.48,80h-14.7l-10.22-19.72h-54L1450,528.09Zm29-29.94h42.92l-21.46-40.8Z"/><path class="cls-1" d="M1565.1,528.09v-80h13.29v68.78H1639v11.18Z"/><path class="cls-1" d="M1662.22,467c0-7.32,1.34-12.29,4-14.88s7.56-4,14.83-4h55.27c7.26,0,12.15,1.23,14.76,4s3.87,7.56,3.87,14.88v42.19q0,11-3.87,14.93c-2.61,2.65-7.5,4-14.76,4H1681c-7.28,0-12.19-1.34-14.83-4s-4-7.61-4-14.93Zm13.32,49.93h66.2v-58h-66.2Z"/><path class="cls-1" d="M1853.48,528.09v-80h13.3v34.23l49.91-34.23h19.45l-58.08,38.33,64.41,41.63h-22.23l-53.47-36v36Z"/><path class="cls-1" d="M1966.42,528.09v-80h77v10.64h-63.71v22.35h38.88v10.55h-38.88v25.41h64.3v11Z"/><path class="cls-1" d="M2075.83,528.09v-80h8.35L2144,501.56a75.18,75.18,0,0,1,9.12,10.09,125,125,0,0,1-1.2-19.72v-43.8h12.22v80h-7.45l-61.51-55.64c-2.3-2.08-3.59-3.23-3.9-3.55a26.79,26.79,0,0,1-4.17-5.47,140.67,140.67,0,0,1,.92,17.56v47.1Z"/><path class="cls-1" d="M2205.69,528.09v-80H2219v80Z"/><path class="cls-1" d="M2244.91,528.09l43.7-80h14.28l44.46,80h-14.74l-10.2-19.72h-54l-10.22,19.72ZM2274,498.15h42.92l-21.48-40.8Z"/><path class="cls-1" d="M2373.2,528.09v-80h8.39l59.84,53.43a80.54,80.54,0,0,1,9.12,10.09,127,127,0,0,1-1.21-19.72v-43.8h12.2v80h-7.41l-61.55-55.64c-2.28-2.08-3.55-3.23-3.9-3.55a28.84,28.84,0,0,1-4.15-5.47,140.33,140.33,0,0,1,.94,17.56v47.1Z"/><path class="cls-1" d="M2487.42,528.09l43.73-80h14.23l44.47,80h-14.68l-10.24-19.72h-54l-10.22,19.72Zm29.09-29.94h42.9l-21.48-40.8Z"/><path class="cls-1" d="M2174,236.27V372h-23V236.27Zm-44.5,36V372h-23V272.25Zm0-36v19.83h-23V236.27ZM2009.1,372V272.25h17.66l2.83,12.83c7.95-8.56,16.43-12.83,25.26-12.83v20.42q-12.72,0-22.78,11.67V372Zm-78-58.53h38.68v-.78c0-13.81-6.36-20.61-19.08-20.61C1938.65,292.08,1932.11,299.28,1931.05,313.47Zm19.61-41.22c27.56,0,41.33,15.56,41.33,46.28a95.63,95.63,0,0,1-.88,12.45h-60.05q0,21,28.08,21a146.9,146.9,0,0,0,27.55-2.72v19.84Q1974.5,372,1957.55,372c-32.85,0-49.28-16.92-49.28-50.94C1908.27,288.58,1922.4,272.25,1950.66,272.25ZM1806.55,372V236.27h55.29c25.08,0,37.8,12.64,37.8,38.11,0,27.81-17.31,44.53-51.75,50.36l-3.18-22.36c20.66-4.28,30.91-13.22,30.91-27.22,0-11.28-5.12-16.92-15.19-16.92h-30.91V372Zm-119-58.53h38.68v-.78c0-13.81-6.36-20.61-19.08-20.61C1695.13,292.08,1688.59,299.28,1687.53,313.47Zm19.61-41.22c27.56,0,41.33,15.56,41.33,46.28a96,96,0,0,1-.88,12.45h-60.06q0,21,28.08,21a146.9,146.9,0,0,0,27.55-2.72v19.84Q1731,372,1714,372c-32.85,0-49.28-16.92-49.28-50.94C1664.75,288.58,1678.88,272.25,1707.14,272.25Zm-142,99.75V272.25h17.66l2.82,14.58q13-14.58,29.67-14.58c21.55,0,32.15,12.25,32.15,36.95V372h-22.79V309.19c0-11.08-4.95-16.53-14.84-16.53-7.42,0-14.66,3.11-21.72,9.72V372Zm-106.84-49.78c0-33.45,14.84-50.17,44.86-50.17,29.85,0,44.86,16.72,44.86,50.17,0,33.25-15,50-44.86,50S1458.31,355.47,1458.31,322.22Zm22.78-.39c0,20.81,7.42,31.11,22.08,31.11s21.9-10.31,21.9-31.11c0-20.42-7.24-30.53-21.9-30.53S1481.1,301.41,1481.1,321.83ZM1441,272.25V372h-23V272.25Zm0-36v19.83h-23V236.27Zm-108.61,36h69.77v20l-46.28,60.67h44.51V372h-69.77V352.94l47-60.67H1332.4Zm-44,57.94a94.22,94.22,0,0,0-18.55-1.94c-11,0-16.43,4.08-16.43,12.44,0,8.75,4.59,13.22,13.78,13.22a33.07,33.07,0,0,0,21.2-7.78Zm-57.76,10.7q0-29.75,39.21-29.75a100.09,100.09,0,0,1,18.55,1.94v-7.39q0-13.41-17.49-13.42c-9.89,0-20.84,1.56-33,4.67V277.11a126.61,126.61,0,0,1,33-4.86c26.85,0,40.27,11.08,40.27,32.86V372H1298l-8.12-8.95a41.59,41.59,0,0,1-26,8.95C1241.64,372,1230.69,361.69,1230.69,340.89Zm-17.3-68.64V372h-23V272.25Zm0-36v19.83h-23V236.27Zm-38,132.81a93.71,93.71,0,0,1-23.31,2.92c-32.32,0-48.4-17.31-48.4-51.72,0-32.08,16.07-48,48.4-48a93.61,93.61,0,0,1,23.31,2.92V295a95.91,95.91,0,0,0-21.73-2.72q-27,0-27,28c0,21.2,9,31.69,27,31.69a95.82,95.82,0,0,0,21.73-2.72Zm-173.78-46.86c0-33.45,14.84-50.17,44.86-50.17,29.85,0,44.86,16.72,44.86,50.17,0,33.25-15,50-44.86,50S1001.65,355.47,1001.65,322.22Zm22.79-.39c0,20.81,7.42,31.11,22.08,31.11s21.9-10.31,21.9-31.11c0-20.42-7.24-30.53-21.9-30.53S1024.43,301.41,1024.43,321.83Zm-107,45.31V346.33c10.07,4.47,21.73,6.61,34.8,6.61,9.89,0,14.84-3.5,14.84-10.31s-3.36-10.11-9.89-10.11H940.73c-18.37,0-27.56-9.92-27.56-29.95,0-20.81,13.43-31.31,40.27-31.31a88.68,88.68,0,0,1,32.15,5.83v20.81a79.92,79.92,0,0,0-32.85-6.61q-18.55,0-18.55,10.5c0,6.61,3.71,9.92,10.78,9.92h14.66c20.14,0,30.2,9.92,30.2,29.94,0,20.81-12.72,31.31-38.33,31.31C938.79,373,927.48,371,917.41,367.14Zm-88.47,0V346.33c10.07,4.47,21.73,6.61,34.8,6.61,9.89,0,14.84-3.5,14.84-10.31s-3.36-10.11-9.89-10.11H852.25c-18.37,0-27.55-9.92-27.55-29.95,0-20.81,13.42-31.31,40.27-31.31a88.68,88.68,0,0,1,32.15,5.83v20.81a79.92,79.92,0,0,0-32.85-6.61q-18.55,0-18.55,10.5c0,6.61,3.71,9.92,10.78,9.92h14.66c20.14,0,30.2,9.92,30.2,29.94,0,20.81-12.72,31.31-38.33,31.31C850.31,373,839,371,828.94,367.14ZM709,372H685.54L738,236.27h24.55L816.07,372H791.35l-14-37.14h-41l7.77-21.78h24.91l-19.43-50.94Z"/><path class="cls-1" d="M3002.33,324.73c0-31.76,14.09-47.64,42.61-47.64,28.35,0,42.6,15.88,42.6,47.64,0,31.58-14.26,47.46-42.6,47.46S3002.33,356.3,3002.33,324.73Zm21.64-.37c0,19.76,7,29.54,21,29.54s20.8-9.79,20.8-29.54c0-19.39-6.88-29-20.8-29S3024,305,3024,324.36Zm-38.08-47.09V372h-21.81V277.27Zm0-34.16v18.84h-21.81V243.11Zm-36.08,126.12a88.85,88.85,0,0,1-22.14,2.77c-30.7,0-46-16.43-46-49.12,0-30.47,15.26-45.61,46-45.61a89,89,0,0,1,22.14,2.77v18.83a91.14,91.14,0,0,0-20.63-2.58q-25.66,0-25.66,26.59c0,20.13,8.55,30.1,25.66,30.1a91.14,91.14,0,0,0,20.63-2.58ZM2830.54,372V277.27h16.77l2.68,12.19c7.55-8.12,15.6-12.19,24-12.19v19.39q-12.08,0-21.64,11.08V372Zm-74.15-55.58h36.73v-.74c0-13.11-6-19.57-18.11-19.57C2763.6,296.1,2757.4,302.94,2756.39,316.42ZM2775,277.27c26.17,0,39.25,14.77,39.25,43.95a90.6,90.6,0,0,1-.84,11.82h-57q0,19.94,26.67,19.94a139.74,139.74,0,0,0,26.17-2.58v18.83a120.22,120.22,0,0,1-27.68,2.77c-31.2,0-46.8-16.07-46.8-48.38C2734.75,292.78,2748.17,277.27,2775,277.27ZM2591.65,372V277.27h16.77l2.52,13.66c7.72-9,16.94-13.66,27.85-13.66,10.73,0,18.11,4.43,22.14,13.11,8.89-8.68,17.95-13.11,27.68-13.11q29.69,0,29.69,36V372h-21.81V312.35c0-10.52-4.36-15.69-12.91-15.69q-9.56,0-18.62,9.42V372h-21.64V312.72q0-16.07-12.08-16.06c-6.21,0-12.25,3.14-17.78,9.42V372Zm-147.13,0V277.27h16.77l2.52,13.66c7.72-9,16.94-13.66,27.85-13.66,10.73,0,18.11,4.43,22.14,13.11,8.89-8.68,17.95-13.11,27.68-13.11q29.69,0,29.69,36V372h-21.8V312.35c0-10.52-4.36-15.69-12.92-15.69q-9.56,0-18.62,9.42V372h-21.64V312.72q0-16.07-12.08-16.06c-6.21,0-12.24,3.14-17.78,9.42V372ZM2343,324.73c0-31.76,14.09-47.64,42.6-47.64,28.35,0,42.61,15.88,42.61,47.64,0,31.58-14.26,47.46-42.61,47.46S2343,356.3,2343,324.73Zm21.64-.37c0,19.76,7,29.54,21,29.54s20.8-9.79,20.8-29.54c0-19.39-6.88-29-20.8-29S2364.67,305,2364.67,324.36Zm-36.08,42.29a91.67,91.67,0,0,1-34.39,6.28q-63.15,0-63.07-67.22,0-63.43,63.07-63.52c12.75,0,24.32,2,34.39,6.28v21.61a75,75,0,0,0-32.71-7.2c-28.18,0-42.27,14.22-42.27,42.84,0,31,14.09,46.35,42.27,46.35a75,75,0,0,0,32.71-7.2Z"/></g></g></svg>