<svg id="Layer_1" data-name="Layer 1" xmlns="http://www.w3.org/2000/svg" xmlns:xlink="http://www.w3.org/1999/xlink" viewBox="0 0 413.77 89.49"><defs><style>.cls-1{fill:url(#Безымянный_градиент_6);}.cls-2{fill:url(#Безымянный_градиент_6-2);}.cls-3{fill:url(#Безымянный_градиент_6-3);}.cls-4{fill:url(#Безымянный_градиент_6-4);}.cls-5{fill:url(#Безымянный_градиент_6-5);}.cls-6{fill:url(#Безымянный_градиент_6-6);}.cls-7{fill:url(#Безымянный_градиент_6-7);}.cls-8{font-size:32.67px;font-family:NexaLight, Nexa Light;}.cls-10,.cls-8{fill:#2e3192;}.cls-9{letter-spacing:-0.1em;}.cls-10{font-size:11.92px;font-family:NexaBold, Nexa Bold;letter-spacing:2em;}.cls-11{letter-spacing:2.03em;}.cls-12{letter-spacing:2em;}</style><linearGradient id="Безымянный_градиент_6" x1="70.65" y1="15.67" x2="12.12" y2="83.53" gradientUnits="userSpaceOnUse"><stop offset="0" stop-color="#28a8e0"/><stop offset="0.99" stop-color="#28306d"/></linearGradient><linearGradient id="Безымянный_градиент_6-2" x1="71.96" y1="16.8" x2="13.43" y2="84.66" xlink:href="#Безымянный_градиент_6"/><linearGradient id="Безымянный_градиент_6-3" x1="73.38" y1="18.02" x2="14.84" y2="85.88" xlink:href="#Безымянный_градиент_6"/><linearGradient id="Безымянный_градиент_6-4" x1="74.65" y1="19.12" x2="16.12" y2="86.98" xlink:href="#Безымянный_градиент_6"/><linearGradient id="Безымянный_градиент_6-5" x1="75.11" y1="19.52" x2="16.58" y2="87.38" xlink:href="#Безымянный_градиент_6"/><linearGradient id="Безымянный_градиент_6-6" x1="71.83" y1="16.69" x2="13.3" y2="84.54" xlink:href="#Безымянный_градиент_6"/><linearGradient id="Безымянный_градиент_6-7" x1="73.91" y1="18.48" x2="15.37" y2="86.34" xlink:href="#Безымянный_градиент_6"/></defs><title>Re-Imagination-2</title><path class="cls-1" d="M91.4,35.38c.25,1.32.6,3.08.79,4.41.2,2,.72,7.11-8.24.28C76,34,71.34,25.34,69.37,21.65,66.19,15.7,64.09,11.77,60.27,9A28.1,28.1,0,0,0,35.35,4.82c1.35-.42,3.16-1,4.54-1.34a29.4,29.4,0,0,1,23,4.81c3.3,2.41,5.57,6.36,7.58,9.85,5.09,8.85,6.3,11,11.16,15.84.12.12,12.07,11.49,9.67,1l.09.38"/><path class="cls-2" d="M91.35,55l-.28,1.12c-3,9.55-17.19-2.61-25.65-18.65-7.83-14.87-10.19-19.35-22.23-26A20.16,20.16,0,0,0,21.44,13l1-.86.86-.69c7.74-5.8,17.18-4.7,28.07,3.26,12.51,9.15,15.38,25.15,25.57,35.95,2.78,2.94,12,11.86,14.7,3.08L91.35,55"/><path class="cls-3" d="M82.51,72.58l-1.93,2.15c-7.28,6.33-18.89-6-24.81-16.85-3.55-6.48-5.86-13.6-10.29-19.62A44.4,44.4,0,0,0,32.9,26.74c-16.44-9.75-22,.38-23.33,3.71l.69-1.77c.87-1.88,2.14-4.34,3.16-6.15,9-12.85,23.71-1.77,28.56,1.87,9.4,7.05,13.9,15.78,16.07,20,9,17.43,9,17.43,11.67,20.41,2.47,2.73,10.92,11,16.32,2.91-1,1.5-2.37,3.5-3.53,4.88"/><path class="cls-4" d="M67.56,84c-3.17,1.17-5.82,1.72-11.08-1.9-11.27-7.77-12.89-22-21.13-31.74S7.82,28.71,7,46c0-1.28,0-3,.12-4.25l0-.54c3-18.54,25.32-1.56,33.78,9.47C47.39,59,49.06,70.16,56.7,77.84s12.71,5.09,15.16,3.86c-1.28.7-3,1.65-4.3,2.26"/><path class="cls-5" d="M53.82,87.65l-2.13.15c-5.27.2-7.83-1.57-8.92-2.33-2.51-1.74-3.27-3.35-4.74-6.83-3.16-7.45-4-9.45-8.65-14.75-8.93-10.19-25-17.76-19.09-2.34l-.2-.5-.64-1.69c-1.75-5.78-1-11.15,7-7.28A46,46,0,0,1,38.88,76.52c2.17,5.58,4.63,11.91,15.23,11.1l-.29,0"/><path class="cls-6" d="M27.82,81.78s.95.47,1.15.22c1.86-2.33-7.92-11.35-11.8-11.77a.54.54,0,0,0-.58.67,9.16,9.16,0,0,0,2,3.41c.83,1,.55.67-.05,0s-1-1.06-1.73-2l-.46-.58c-3.19-4-4.72-8-1.65-7.39,4.62.89,17.41,11.53,17.54,17.35a1.49,1.49,0,0,1-1.58,1.5A3.67,3.67,0,0,1,27.82,81.78Z"/><path class="cls-7" d="M86.5,23.2l.82,1.45c1.41,2.63,1.1,3.16.88,3.54-.71.06-1.22.1-3.66-1.57a38,38,0,0,1-7.18-6.53,44.2,44.2,0,0,1-4.53-6.5,20,20,0,0,0-3.92-5.2,34.73,34.73,0,0,0-5.68-3.8,58.82,58.82,0,0,1,5.63,2.64,16,16,0,0,1,4.57,4.14A62.67,62.67,0,0,0,79.67,19c.9.89,3.69,4,5.26,3a.49.49,0,0,0,.18-.37c-.09-.73-2.45-3.92-2.45-3.92"/><text class="cls-8" transform="translate(118.03 44.27)">SKYLINE PL<tspan class="cls-9" x="176.09" y="0">A</tspan><tspan x="195.36" y="0">TINUM</tspan></text><text class="cls-10" transform="translate(121.16 70.52)">FREIGHTE<tspan class="cls-11" x="248.61" y="0">R</tspan><tspan class="cls-12" x="280.88" y="0">S</tspan></text></svg>